<svg width="807" height="160" viewBox="0 0 807 160" fill="none" xmlns="http://www.w3.org/2000/svg">
<path d="M84.248 133.464C84.248 143.064 94.568 144.36 94.568 151.272C94.568 153.672 93.512 154.536 91.832 154.536C90.152 154.536 89.096 153.672 89.096 151.272V148.872H84.104V150.936C84.104 156.312 86.792 159.384 91.976 159.384C97.16 159.384 99.848 156.312 99.848 150.936C99.848 141.336 89.528 140.04 89.528 133.128C89.528 130.728 90.488 129.816 92.168 129.816C93.848 129.816 94.808 130.728 94.808 133.128V134.52H99.8V133.464C99.8 128.088 97.16 125.016 92.024 125.016C86.888 125.016 84.248 128.088 84.248 133.464Z" fill="#717171"/>
<path d="M117.801 133.128C117.801 130.728 118.857 129.816 120.537 129.816C122.217 129.816 123.273 130.728 123.273 133.128V151.272C123.273 153.672 122.217 154.584 120.537 154.584C118.857 154.584 117.801 153.672 117.801 151.272V133.128ZM112.521 150.936C112.521 156.312 115.353 159.384 120.537 159.384C125.721 159.384 128.553 156.312 128.553 150.936V133.464C128.553 128.088 125.721 125.016 120.537 125.016C115.353 125.016 112.521 128.088 112.521 133.464V150.936Z" fill="#717171"/>
<path d="M142.064 159H156.032V154.2H147.344V125.4H142.064V159Z" fill="#717171"/>
<path d="M168.17 125.4V150.984C168.17 156.36 170.858 159.432 176.042 159.432C181.226 159.432 183.914 156.36 183.914 150.984V125.4H178.922V151.32C178.922 153.72 177.866 154.584 176.186 154.584C174.506 154.584 173.45 153.72 173.45 151.32V125.4H168.17Z" fill="#717171"/>
<path d="M196.943 133.464C196.943 143.064 207.263 144.36 207.263 151.272C207.263 153.672 206.207 154.536 204.527 154.536C202.847 154.536 201.791 153.672 201.791 151.272V148.872H196.799V150.936C196.799 156.312 199.487 159.384 204.671 159.384C209.855 159.384 212.543 156.312 212.543 150.936C212.543 141.336 202.223 140.04 202.223 133.128C202.223 130.728 203.183 129.816 204.863 129.816C206.543 129.816 207.503 130.728 207.503 133.128V134.52H212.495V133.464C212.495 128.088 209.855 125.016 204.719 125.016C199.583 125.016 196.943 128.088 196.943 133.464Z" fill="#717171"/>
<path d="M225.648 159H230.928V125.4H225.648V159Z" fill="#717171"/>
<path d="M287.711 125.4H279.935V159H285.215V146.376H287.711C292.991 146.376 295.583 143.448 295.583 138.072V133.704C295.583 128.328 292.991 125.4 287.711 125.4ZM287.711 130.2C289.391 130.2 290.303 130.968 290.303 133.368V138.408C290.303 140.808 289.391 141.576 287.711 141.576H285.215V130.2H287.711Z" fill="#717171"/>
<path d="M324.525 159C323.997 157.752 323.949 156.552 323.949 154.92V149.736C323.949 146.232 323.085 143.688 320.445 142.584C322.797 141.48 323.901 139.224 323.901 135.768V133.128C323.901 127.944 321.549 125.4 316.077 125.4H308.109V159H313.389V145.32H315.213C317.613 145.32 318.669 146.472 318.669 149.592V154.872C318.669 157.608 318.861 158.136 319.149 159H324.525ZM315.933 130.2C317.805 130.2 318.621 131.256 318.621 133.656V136.968C318.621 139.656 317.421 140.52 315.453 140.52H313.389V130.2H315.933Z" fill="#717171"/>
<path d="M342.349 133.128C342.349 130.728 343.405 129.816 345.085 129.816C346.765 129.816 347.821 130.728 347.821 133.128V151.272C347.821 153.672 346.765 154.584 345.085 154.584C343.405 154.584 342.349 153.672 342.349 151.272V133.128ZM337.069 150.936C337.069 156.312 339.901 159.384 345.085 159.384C350.269 159.384 353.101 156.312 353.101 150.936V133.464C353.101 128.088 350.269 125.016 345.085 125.016C339.901 125.016 337.069 128.088 337.069 133.464V150.936Z" fill="#717171"/>
<path d="M373.909 125.4H366.565V159H371.173V135.24L375.109 159H380.1L383.749 134.904V159H388.741V125.4H381.397L377.797 149.256L373.909 125.4Z" fill="#717171"/>
<path d="M407.509 133.128C407.509 130.728 408.565 129.816 410.245 129.816C411.925 129.816 412.981 130.728 412.981 133.128V151.272C412.981 153.672 411.925 154.584 410.245 154.584C408.565 154.584 407.509 153.672 407.509 151.272V133.128ZM402.229 150.936C402.229 156.312 405.061 159.384 410.245 159.384C415.429 159.384 418.261 156.312 418.261 150.936V133.464C418.261 128.088 415.429 125.016 410.245 125.016C405.061 125.016 402.229 128.088 402.229 133.464V150.936Z" fill="#717171"/>
<path d="M431.1 133.464C431.1 143.064 441.421 144.36 441.421 151.272C441.421 153.672 440.365 154.536 438.685 154.536C437.005 154.536 435.949 153.672 435.949 151.272V148.872H430.957V150.936C430.957 156.312 433.645 159.384 438.829 159.384C444.013 159.384 446.701 156.312 446.701 150.936C446.701 141.336 436.381 140.04 436.381 133.128C436.381 130.728 437.341 129.816 439.021 129.816C440.701 129.816 441.661 130.728 441.661 133.128V134.52H446.652V133.464C446.652 128.088 444.012 125.016 438.876 125.016C433.74 125.016 431.1 128.088 431.1 133.464Z" fill="#717171"/>
<path d="M459.806 159H465.086V125.4H459.806V159Z" fill="#717171"/>
<path d="M528.684 125.4H520.956L515.581 159H520.428L521.34 152.904H527.82L528.732 159H534.06L528.684 125.4ZM524.556 131.352L527.1 148.344H522.012L524.556 131.352Z" fill="#717171"/>
<path d="M546.599 159H554.951C560.231 159 562.823 156.072 562.823 150.696V133.704C562.823 128.328 560.231 125.4 554.951 125.4H546.599V159ZM554.855 130.2C556.535 130.2 557.543 131.064 557.543 133.464V150.936C557.543 153.336 556.535 154.2 554.855 154.2H551.879V130.2H554.855Z" fill="#717171"/>
<path d="M580.162 125.4H574.834L580.018 159H587.89L593.074 125.4H588.226L584.194 152.808L580.162 125.4Z" fill="#717171"/>
<path d="M610.899 130.2H620.019V125.4H605.619V159H620.019V154.2H610.899V144.36H618.147V139.56H610.899V130.2Z" fill="#717171"/>
<path d="M649.787 159C649.259 157.752 649.211 156.552 649.211 154.92V149.736C649.211 146.232 648.347 143.688 645.707 142.584C648.059 141.48 649.163 139.224 649.163 135.768V133.128C649.163 127.944 646.811 125.4 641.339 125.4H633.371V159H638.651V145.32H640.475C642.875 145.32 643.931 146.472 643.931 149.592V154.872C643.931 157.608 644.123 158.136 644.411 159H649.787ZM641.195 130.2C643.067 130.2 643.883 131.256 643.883 133.656V136.968C643.883 139.656 642.683 140.52 640.715 140.52H638.651V130.2H641.195Z" fill="#717171"/>
<path d="M661.227 130.2H666.747V159H672.027V130.2H677.547V125.4H661.227V130.2Z" fill="#717171"/>
<path d="M689.952 159H695.232V125.4H689.952V159Z" fill="#717171"/>
<path d="M708.501 133.464C708.501 143.064 718.821 144.36 718.821 151.272C718.821 153.672 717.765 154.536 716.085 154.536C714.405 154.536 713.349 153.672 713.349 151.272V148.872H708.357V150.936C708.357 156.312 711.045 159.384 716.229 159.384C721.413 159.384 724.101 156.312 724.101 150.936C724.101 141.336 713.781 140.04 713.781 133.128C713.781 130.728 714.741 129.816 716.421 129.816C718.101 129.816 719.061 130.728 719.061 133.128V134.52H724.053V133.464C724.053 128.088 721.413 125.016 716.277 125.016C711.141 125.016 708.501 128.088 708.501 133.464Z" fill="#717171"/>
<path d="M737.206 159H742.486V125.4H737.206V159Z" fill="#717171"/>
<path d="M767.707 159H773.131V125.4H768.427V145.512L763.003 125.4H756.379V159H761.131V134.664L767.707 159Z" fill="#717171"/>
<path d="M794.911 145.08H797.311V151.272C797.311 153.672 796.255 154.536 794.575 154.536C792.895 154.536 791.839 153.672 791.839 151.272V133.128C791.839 130.728 792.895 129.816 794.575 129.816C796.255 129.816 797.311 130.728 797.311 133.128V136.728H802.303V133.464C802.303 128.088 799.615 125.016 794.431 125.016C789.247 125.016 786.559 128.088 786.559 133.464V150.936C786.559 156.312 789.247 159.384 794.431 159.384C799.615 159.384 802.303 156.312 802.303 150.936V140.28H794.911V145.08Z" fill="#717171"/>
<path d="M528.305 32.365V114H539.035V12.5H523.23L507.135 93.555L490.46 12.5H474.655V114H484.515V33.09L501.335 113.855H512.21L528.305 32.365Z" fill="#F08300"/>
<path d="M585.643 93.555L589.558 114H600.868L581.438 12.5H565.053L545.623 114H556.063L559.978 93.555H585.643ZM572.593 25.26L584.048 83.84H561.428L572.593 25.26Z" fill="#F08300"/>
<path d="M617.525 31.93L643.48 114H655.225V12.5H645.22V85.87L621.73 12.5H607.375V114H617.525V31.93Z" fill="#F08300"/>
<path d="M664.676 12.5V114H688.456C704.261 114 711.511 104.43 711.511 88.915V37.73C711.511 22.07 704.261 12.5 688.456 12.5H664.676ZM675.986 103.705V22.795H688.166C696.431 22.795 700.346 27.87 700.346 37.15V89.35C700.346 98.63 696.431 103.705 688.311 103.705H675.986Z" fill="#F08300"/>
<path d="M719.992 12.5V114H731.302V12.5H719.992Z" fill="#F08300"/>
<path d="M740.756 12.5V114H752.066V70.645H760.041C769.466 70.645 774.831 74.27 774.831 85.725V101.675C774.831 108.49 775.411 111.1 776.716 114H788.171C786.286 110.52 786.141 106.315 786.141 101.82V86.015C786.141 75.14 782.661 67.6 773.381 64.845C782.081 62.09 785.996 55.13 785.996 43.965V35.7C785.996 20.62 779.326 12.5 763.376 12.5H740.756ZM752.066 60.35V22.795H763.086C771.496 22.795 774.831 27.58 774.831 36.715V46.43C774.831 57.45 769.466 60.35 760.476 60.35H752.066Z" fill="#F08300"/>
<path d="M795.646 12.5V114H806.957V12.5H795.646Z" fill="#F08300"/>
<path fill-rule="evenodd" clip-rule="evenodd" d="M0 0H43C58.464 0 71 12.536 71 28V98C71 113.464 58.464 126 43 126H0V0ZM38.9706 19.3431C35.8464 16.219 30.7811 16.219 27.6569 19.3431C24.5327 22.4673 24.5327 27.5327 27.6569 30.6569L41.3432 44.3431C44.4674 47.4673 49.5327 47.4673 52.6569 44.3431C55.7811 41.219 55.7811 36.1536 52.6569 33.0294L38.9706 19.3431ZM20.9706 36.3431C17.8464 33.219 12.7811 33.219 9.65687 36.3431C6.53267 39.4673 6.53267 44.5327 9.65687 47.6569L48.3432 86.3431C51.4674 89.4673 56.5327 89.4673 59.6569 86.3431C62.7811 83.2189 62.7811 78.1536 59.6569 75.0294L20.9706 36.3431ZM28.9706 79.3432C25.8464 76.219 20.7811 76.219 17.6569 79.3432C14.5327 82.4674 14.5327 87.5327 17.6569 90.6569L31.3432 104.343C34.4674 107.467 39.5327 107.467 42.6569 104.343C45.7811 101.219 45.7811 96.1536 42.6569 93.0294L28.9706 79.3432Z" fill="#004581"/>
<path d="M82.77 36.86C82.77 52.5481 91.8933 60.8952 100.269 68.5583C107.376 75.0606 113.945 81.0705 113.945 90.655C113.945 97.905 110.755 100.515 105.68 100.515C100.605 100.515 97.415 97.905 97.415 90.655V83.405H82.335V89.64C82.335 105.88 90.455 115.16 106.115 115.16C121.775 115.16 129.895 105.88 129.895 89.64C129.895 73.9518 120.772 65.6048 112.396 57.9417C105.289 51.4394 98.72 45.4295 98.72 35.845C98.72 28.595 101.62 25.84 106.695 25.84C111.77 25.84 114.67 28.595 114.67 35.845V40.05H129.75V36.86C129.75 20.62 121.775 11.34 106.26 11.34C90.745 11.34 82.77 20.62 82.77 36.86Z" fill="#004581"/>
<path d="M152.808 27H180.358V12.5H136.858V114H180.358V99.5H152.808V69.775H174.703V55.275H152.808V27Z" fill="#004581"/>
<path d="M187.922 12.5H210.107L221.852 84.565L232.727 12.5H254.912V114H239.832V41.21L228.812 114H213.732L201.842 42.225V114H187.922V12.5Z" fill="#004581"/>
<path d="M280.289 27H307.839V12.5H264.339V114H307.839V99.5H280.289V69.775H302.184V55.275H280.289V27Z" fill="#004581"/>
<path d="M331.017 68.5583C322.642 60.8952 313.518 52.5481 313.518 36.86C313.518 20.62 321.493 11.34 337.008 11.34C352.523 11.34 360.498 20.62 360.498 36.86V40.05H345.418V35.845C345.418 28.595 342.518 25.84 337.443 25.84C332.368 25.84 329.468 28.595 329.468 35.845C329.468 45.4295 336.037 51.4394 343.144 57.9417C351.52 65.6048 360.643 73.9518 360.643 89.64C360.643 105.88 352.523 115.16 336.863 115.16C321.203 115.16 313.083 105.88 313.083 89.64V83.405H328.163V90.655C328.163 97.905 331.353 100.515 336.428 100.515C341.503 100.515 344.693 97.905 344.693 90.655C344.693 81.0705 338.124 75.0606 331.017 68.5583Z" fill="#004581"/>
<path d="M362.967 27H379.642V114H395.592V27H412.267V12.5H362.967V27Z" fill="#004581"/>
<path fill-rule="evenodd" clip-rule="evenodd" d="M423.629 12.5H446.974L463.214 114H447.119L444.364 95.585H424.789L422.034 114H407.389L423.629 12.5ZM442.189 81.81L434.504 30.48L426.819 81.81H442.189Z" fill="#004581"/>
</svg>
